# 3ds Max Wavefront OBJ Exporter v0.97b - (c)2007 guruware
# File Created: 08.02.2014 10:55:44

#
# object TinyWeed_06_2sided
#

v  29.7951 -0.9873 5.9290
v  -16.9360 -0.9873 -60.8100
v  -26.9400 11.7429 -4.0749
v  -83.6750 -0.9873 -14.0789
v  -36.9439 -0.9873 52.6601
v  5.1492 9.0800 25.8521
v  42.9184 9.0800 -28.0878
v  -2.9361 19.3689 -20.0024
v  -11.0215 9.0800 -65.8570
v  -48.7907 9.0800 -11.9171
v  -23.0451 11.3933 -18.3045
v  4.7837 11.3933 41.3745
v  20.7088 21.6821 -2.3794
v  64.4627 11.3933 13.5457
v  36.6339 11.3933 -46.1333
v  17.2633 9.0800 -22.2952
v  -48.3346 9.0800 -16.5561
v  -12.6661 19.3689 13.3733
v  -42.5955 9.0800 49.0418
v  23.0024 9.0800 43.3028
v  -2.0273 1.8966 -13.3271
v  -46.5416 12.4071 -15.5204
v  -24.1798 16.6256 9.9546
v  -49.3906 14.2394 31.3154
v  -4.8763 3.7288 33.5088
v  -21.3575 11.8939 -58.8074
v  -52.3954 7.8476 -25.3846
v  -19.7880 17.9320 -24.0109
v  -18.5864 6.8556 7.1890
v  12.4515 10.9019 -26.2337
v  26.6616 10.2675 49.7457
v  54.7905 10.3931 13.6132
v  21.4069 17.3742 15.5171
v  18.4085 7.3609 -15.9203
v  -9.7204 7.2353 20.2121
v  29.0186 24.9510 23.7270
v  50.1706 15.2680 -15.7146
v  19.7520 29.7404 -10.0503
v  9.5693 17.6907 -39.1825
v  -11.5827 27.3737 0.2591
v  -23.4293 35.5049 15.3960
v  32.8869 7.6291 40.6305
v  19.7157 22.7599 -4.1154
v  52.9162 -8.5917 -21.9879
v  -3.4000 19.2841 -47.2223
v  45.7437 18.0594 -29.2468
v  -11.8514 -3.2599 -57.7712
v  -1.6757 27.1183 -20.6465
v  -46.4126 17.1299 -3.2264
v  11.1825 38.4492 25.2980
v  -42.7744 16.3107 -16.9455
v  -35.2465 -3.6482 47.3220
v  -10.1599 26.7554 18.1518
v  28.8558 18.1624 46.5870
v  21.3279 38.1214 -17.6805
v  -30.8185 1.8748 -62.9075
v  -23.7177 1.8748 18.2557
v  13.3135 14.6050 -25.8764
v  57.4455 1.8748 11.1548
v  50.3447 1.8748 -70.0084
v  -42.1259 -0.9873 0.2100
v  -7.6939 -0.9873 74.0498
v  12.0100 11.7429 19.9139
v  66.1460 -0.9873 39.6177
v  31.7139 -0.9873 -34.2221
# 65 vertices

vn 0.2125 0.9764 0.0375
vn 0.0375 0.9764 -0.2125
vn 0.0000 1.0000 -0.0000
vn -0.2125 0.9764 -0.0375
vn -0.0375 0.9764 0.2125
vn 0.0375 0.9764 0.2125
vn 0.2125 0.9764 -0.0375
vn -0.0375 0.9764 -0.2125
vn -0.2125 0.9764 0.0375
vn -0.2028 0.9764 -0.0738
vn -0.0738 0.9764 0.2028
vn 0.2028 0.9764 0.0738
vn 0.0738 0.9764 -0.2028
vn 0.1387 0.9764 -0.1653
vn -0.1653 0.9764 -0.1387
vn -0.1387 0.9764 0.1653
vn 0.1653 0.9764 0.1387
vn 0.3997 0.8973 -0.1874
vn 0.0606 0.9748 -0.2146
vn 0.2254 0.9742 -0.0107
vn 0.0338 0.9881 0.1502
vn 0.3943 0.9029 0.1712
vn -0.0536 0.9843 -0.1684
vn -0.2976 0.9514 0.0788
vn -0.0394 0.9951 0.0908
vn -0.0369 0.9413 0.3356
vn 0.2170 0.9739 0.0669
vn -0.0217 0.9782 0.2064
vn 0.2009 0.9776 -0.0622
vn -0.0602 0.9969 -0.0498
vn -0.0799 0.9520 -0.2956
vn -0.3104 0.9506 -0.0047
vn 0.2164 0.9731 0.0786
vn 0.3863 0.8966 -0.2163
vn 0.1406 0.9754 -0.1699
vn 0.0716 0.9126 -0.4025
vn -0.1026 0.9911 -0.0844
vn 0.2869 0.9579 0.0086
vn 0.5406 0.8323 0.1223
vn 0.4699 0.8793 -0.0775
vn 0.6309 0.7592 -0.1599
vn 0.3771 0.8848 -0.2736
vn 0.0839 0.8810 -0.4656
vn -0.1757 0.7849 -0.5941
vn -0.1268 0.9001 -0.4168
vn -0.3314 0.8768 -0.3484
vn -0.0719 0.9729 -0.2198
vn -0.4568 0.8743 0.1643
vn -0.4228 0.7844 0.4539
vn -0.3025 0.8997 0.3148
vn -0.1340 0.8826 0.4506
vn -0.1679 0.9726 0.1610
vn -0.2125 -0.9764 -0.0375
vn 0.0000 -1.0000 -0.0000
vn -0.0375 -0.9764 0.2125
vn 0.2125 -0.9764 0.0375
vn 0.0375 -0.9764 -0.2125
vn -0.0375 -0.9764 -0.2125
vn -0.2125 -0.9764 0.0375
vn 0.0375 -0.9764 0.2125
vn 0.2125 -0.9764 -0.0375
vn 0.2028 -0.9764 0.0738
vn 0.0738 -0.9764 -0.2028
vn -0.2028 -0.9764 -0.0738
vn -0.0738 -0.9764 0.2028
vn -0.1387 -0.9764 0.1653
vn 0.1653 -0.9764 0.1387
vn 0.1387 -0.9764 -0.1653
vn -0.1653 -0.9764 -0.1387
vn -0.3997 -0.8973 0.1874
vn -0.2254 -0.9742 0.0107
vn -0.0606 -0.9748 0.2146
vn -0.0338 -0.9881 -0.1502
vn -0.3943 -0.9029 -0.1712
vn 0.0536 -0.9843 0.1684
vn 0.0394 -0.9951 -0.0908
vn 0.2976 -0.9514 -0.0788
vn 0.0369 -0.9413 -0.3356
vn -0.2170 -0.9739 -0.0669
vn 0.0217 -0.9782 -0.2064
vn 0.0602 -0.9969 0.0498
vn -0.2009 -0.9776 0.0622
vn 0.0799 -0.9520 0.2956
vn 0.3104 -0.9506 0.0047
vn -0.2164 -0.9731 -0.0786
vn -0.1406 -0.9754 0.1699
vn -0.3863 -0.8966 0.2163
vn -0.0716 -0.9126 0.4025
vn 0.1026 -0.9911 0.0844
vn -0.2869 -0.9579 -0.0086
vn -0.4699 -0.8793 0.0775
vn -0.5406 -0.8323 -0.1223
vn -0.6309 -0.7592 0.1599
vn -0.3771 -0.8848 0.2736
vn -0.0839 -0.8810 0.4656
vn 0.1268 -0.9001 0.4168
vn 0.1757 -0.7849 0.5941
vn 0.3314 -0.8768 0.3484
vn 0.0719 -0.9729 0.2198
vn 0.4568 -0.8743 -0.1643
vn 0.3025 -0.8997 -0.3148
vn 0.4228 -0.7844 -0.4539
vn 0.1340 -0.8826 -0.4506
vn 0.1679 -0.9726 -0.1610
# 104 vertex normals

vt 0.0000 1.0000 0.0000
vt 0.0000 0.0000 0.0000
vt 0.5000 0.5000 0.0000
vt 1.0000 0.0000 0.0000
vt 1.0000 1.0000 0.0000
# 5 texture coords

g TinyWeed_06_2sided
s 1
f 1/1/1 2/2/2 3/3/3 
f 2/2/2 4/4/4 3/3/3 
f 4/4/4 5/5/5 3/3/3 
f 5/5/5 1/1/1 3/3/3 
f 6/1/6 7/2/7 8/3/3 
f 7/2/7 9/4/8 8/3/3 
f 9/4/8 10/5/9 8/3/3 
f 10/5/9 6/1/6 8/3/3 
f 11/1/10 12/2/11 13/3/3 
f 12/2/11 14/4/12 13/3/3 
f 14/4/12 15/5/13 13/3/3 
f 15/5/13 11/1/10 13/3/3 
f 16/1/14 17/2/15 18/3/3 
f 17/2/15 19/4/16 18/3/3 
f 19/4/16 20/5/17 18/3/3 
f 20/5/17 16/1/14 18/3/3 
f 21/1/18 22/2/19 23/3/20 
f 22/2/19 24/4/21 23/3/20 
f 24/4/21 25/5/22 23/3/20 
f 25/5/22 21/1/18 23/3/20 
f 26/1/23 27/2/24 28/3/25 
f 27/2/24 29/4/26 28/3/25 
f 29/4/26 30/5/27 28/3/25 
f 30/5/27 26/1/23 28/3/25 
f 31/1/28 32/2/29 33/3/30 
f 32/2/29 34/4/31 33/3/30 
f 34/4/31 35/5/32 33/3/30 
f 35/5/32 31/1/28 33/3/30 
f 36/1/33 37/2/34 38/3/35 
f 37/2/34 39/4/36 38/3/35 
f 39/4/36 40/5/37 38/3/35 
f 40/5/37 36/1/33 38/3/35 
f 41/1/38 42/2/39 43/3/40 
f 42/2/39 44/4/41 43/3/40 
f 44/4/41 45/5/42 43/3/40 
f 45/5/42 41/1/38 43/3/40 
f 46/1/43 47/2/44 48/3/45 
f 47/2/44 49/4/46 48/3/45 
f 49/4/46 50/5/47 48/3/45 
f 50/5/47 46/1/43 48/3/45 
f 51/1/48 52/2/49 53/3/50 
f 52/2/49 54/4/51 53/3/50 
f 54/4/51 55/5/52 53/3/50 
f 55/5/52 51/1/48 53/3/50 
f 56/1/15 57/2/16 58/3/3 
f 57/2/16 59/4/17 58/3/3 
f 59/4/17 60/5/14 58/3/3 
f 60/5/14 56/1/15 58/3/3 
f 61/1/10 62/2/11 63/3/3 
f 62/2/11 64/4/12 63/3/3 
f 64/4/12 65/5/13 63/3/3 
f 65/5/13 61/1/10 63/3/3 
s 2
f 1/1/53 3/3/54 2/2/55 
f 2/2/55 3/3/54 4/4/56 
f 4/4/56 3/3/54 5/5/57 
f 5/5/57 3/3/54 1/1/53 
f 6/1/58 8/3/54 7/2/59 
f 7/2/59 8/3/54 9/4/60 
f 9/4/60 8/3/54 10/5/61 
f 10/5/61 8/3/54 6/1/58 
f 11/1/62 13/3/54 12/2/63 
f 12/2/63 13/3/54 14/4/64 
f 14/4/64 13/3/54 15/5/65 
f 15/5/65 13/3/54 11/1/62 
f 16/1/66 18/3/54 17/2/67 
f 17/2/67 18/3/54 19/4/68 
f 19/4/68 18/3/54 20/5/69 
f 20/5/69 18/3/54 16/1/66 
f 21/1/70 23/3/71 22/2/72 
f 22/2/72 23/3/71 24/4/73 
f 24/4/73 23/3/71 25/5/74 
f 25/5/74 23/3/71 21/1/70 
f 26/1/75 28/3/76 27/2/77 
f 27/2/77 28/3/76 29/4/78 
f 29/4/78 28/3/76 30/5/79 
f 30/5/79 28/3/76 26/1/75 
f 31/1/80 33/3/81 32/2/82 
f 32/2/82 33/3/81 34/4/83 
f 34/4/83 33/3/81 35/5/84 
f 35/5/84 33/3/81 31/1/80 
f 36/1/85 38/3/86 37/2/87 
f 37/2/87 38/3/86 39/4/88 
f 39/4/88 38/3/86 40/5/89 
f 40/5/89 38/3/86 36/1/85 
f 41/1/90 43/3/91 42/2/92 
f 42/2/92 43/3/91 44/4/93 
f 44/4/93 43/3/91 45/5/94 
f 45/5/94 43/3/91 41/1/90 
f 46/1/95 48/3/96 47/2/97 
f 47/2/97 48/3/96 49/4/98 
f 49/4/98 48/3/96 50/5/99 
f 50/5/99 48/3/96 46/1/95 
f 51/1/100 53/3/101 52/2/102 
f 52/2/102 53/3/101 54/4/103 
f 54/4/103 53/3/101 55/5/104 
f 55/5/104 53/3/101 51/1/100 
f 56/1/67 58/3/54 57/2/68 
f 57/2/68 58/3/54 59/4/69 
f 59/4/69 58/3/54 60/5/66 
f 60/5/66 58/3/54 56/1/67 
f 61/1/62 63/3/54 62/2/63 
f 62/2/63 63/3/54 64/4/64 
f 64/4/64 63/3/54 65/5/65 
f 65/5/65 63/3/54 61/1/62 
# 0 polygons - 104 triangles

#
# object TinyWeed_06_1sided
#

v  29.7951 -0.9873 5.9290
v  -16.9360 -0.9873 -60.8100
v  -26.9400 11.7429 -4.0749
v  -83.6750 -0.9873 -14.0789
v  -36.9439 -0.9873 52.6601
v  5.1492 9.0800 25.8521
v  42.9184 9.0800 -28.0878
v  -2.9361 19.3689 -20.0024
v  -11.0215 9.0800 -65.8570
v  -48.7907 9.0800 -11.9171
v  -23.0451 11.3933 -18.3045
v  4.7837 11.3933 41.3745
v  20.7088 21.6821 -2.3794
v  64.4627 11.3933 13.5457
v  36.6339 11.3933 -46.1333
v  17.2633 9.0800 -22.2952
v  -48.3346 9.0800 -16.5561
v  -12.6661 19.3689 13.3733
v  -42.5955 9.0800 49.0418
v  23.0024 9.0800 43.3028
v  -2.0273 1.8966 -13.3271
v  -46.5416 12.4071 -15.5204
v  -24.1798 16.6256 9.9546
v  -49.3906 14.2394 31.3154
v  -4.8763 3.7288 33.5088
v  -21.3575 11.8939 -58.8074
v  -52.3954 7.8476 -25.3846
v  -19.7880 17.9320 -24.0109
v  -18.5864 6.8556 7.1890
v  12.4515 10.9019 -26.2337
v  26.6616 10.2675 49.7457
v  54.7905 10.3931 13.6132
v  21.4069 17.3742 15.5171
v  18.4085 7.3609 -15.9203
v  -9.7204 7.2353 20.2121
v  29.0186 24.9510 23.7270
v  50.1706 15.2680 -15.7146
v  19.7520 29.7404 -10.0503
v  9.5693 17.6907 -39.1825
v  -11.5827 27.3737 0.2591
v  -23.4293 35.5049 15.3960
v  32.8869 7.6291 40.6305
v  19.7157 22.7599 -4.1154
v  52.9162 -8.5917 -21.9879
v  -3.4000 19.2841 -47.2223
v  45.7437 18.0594 -29.2468
v  -11.8514 -3.2599 -57.7712
v  -1.6757 27.1183 -20.6465
v  -46.4126 17.1299 -3.2264
v  11.1825 38.4492 25.2980
v  -42.7744 16.3107 -16.9455
v  -35.2465 -3.6482 47.3220
v  -10.1599 26.7554 18.1518
v  28.8558 18.1624 46.5870
v  21.3279 38.1214 -17.6805
v  -30.8185 1.8748 -62.9075
v  -23.7177 1.8748 18.2557
v  13.3135 14.6050 -25.8764
v  57.4455 1.8748 11.1548
v  50.3447 1.8748 -70.0084
v  -42.1259 -0.9873 0.2100
v  -7.6939 -0.9873 74.0498
v  12.0100 11.7429 19.9139
v  66.1460 -0.9873 39.6177
v  31.7139 -0.9873 -34.2221
# 65 vertices

vn 0.2125 0.9764 0.0375
vn 0.0375 0.9764 -0.2125
vn 0.0000 1.0000 -0.0000
vn -0.2125 0.9764 -0.0375
vn -0.0375 0.9764 0.2125
vn 0.0375 0.9764 0.2125
vn 0.2125 0.9764 -0.0375
vn -0.0375 0.9764 -0.2125
vn -0.2125 0.9764 0.0375
vn -0.2028 0.9764 -0.0738
vn -0.0738 0.9764 0.2028
vn 0.2028 0.9764 0.0738
vn 0.0738 0.9764 -0.2028
vn 0.1387 0.9764 -0.1653
vn -0.1653 0.9764 -0.1387
vn -0.1387 0.9764 0.1653
vn 0.1653 0.9764 0.1387
vn 0.3997 0.8973 -0.1874
vn 0.0606 0.9748 -0.2146
vn 0.2254 0.9742 -0.0107
vn 0.0338 0.9881 0.1502
vn 0.3943 0.9029 0.1712
vn -0.0536 0.9843 -0.1684
vn -0.2976 0.9514 0.0788
vn -0.0394 0.9951 0.0908
vn -0.0369 0.9413 0.3356
vn 0.2170 0.9739 0.0669
vn -0.0217 0.9782 0.2064
vn 0.2009 0.9776 -0.0622
vn -0.0602 0.9969 -0.0498
vn -0.0799 0.9520 -0.2956
vn -0.3104 0.9506 -0.0047
vn 0.2164 0.9731 0.0786
vn 0.3863 0.8966 -0.2163
vn 0.1406 0.9754 -0.1699
vn 0.0716 0.9126 -0.4025
vn -0.1026 0.9911 -0.0844
vn 0.2869 0.9579 0.0086
vn 0.5406 0.8323 0.1223
vn 0.4699 0.8793 -0.0775
vn 0.6309 0.7592 -0.1599
vn 0.3771 0.8848 -0.2736
vn 0.0839 0.8810 -0.4656
vn -0.1757 0.7849 -0.5941
vn -0.1268 0.9001 -0.4168
vn -0.3314 0.8768 -0.3484
vn -0.0719 0.9729 -0.2198
vn -0.4568 0.8743 0.1643
vn -0.4228 0.7844 0.4539
vn -0.3025 0.8997 0.3148
vn -0.1340 0.8826 0.4506
vn -0.1679 0.9726 0.1610
# 52 vertex normals

vt 0.0000 1.0000 0.0000
vt 0.0000 0.0000 0.0000
vt 0.5000 0.5000 0.0000
vt 1.0000 0.0000 0.0000
vt 1.0000 1.0000 0.0000
# 5 texture coords

g TinyWeed_06_1sided
s 1
f 66/6/105 67/7/106 68/8/107 
f 67/7/106 69/9/108 68/8/107 
f 69/9/108 70/10/109 68/8/107 
f 70/10/109 66/6/105 68/8/107 
f 71/6/110 72/7/111 73/8/107 
f 72/7/111 74/9/112 73/8/107 
f 74/9/112 75/10/113 73/8/107 
f 75/10/113 71/6/110 73/8/107 
f 76/6/114 77/7/115 78/8/107 
f 77/7/115 79/9/116 78/8/107 
f 79/9/116 80/10/117 78/8/107 
f 80/10/117 76/6/114 78/8/107 
f 81/6/118 82/7/119 83/8/107 
f 82/7/119 84/9/120 83/8/107 
f 84/9/120 85/10/121 83/8/107 
f 85/10/121 81/6/118 83/8/107 
f 86/6/122 87/7/123 88/8/124 
f 87/7/123 89/9/125 88/8/124 
f 89/9/125 90/10/126 88/8/124 
f 90/10/126 86/6/122 88/8/124 
f 91/6/127 92/7/128 93/8/129 
f 92/7/128 94/9/130 93/8/129 
f 94/9/130 95/10/131 93/8/129 
f 95/10/131 91/6/127 93/8/129 
f 96/6/132 97/7/133 98/8/134 
f 97/7/133 99/9/135 98/8/134 
f 99/9/135 100/10/136 98/8/134 
f 100/10/136 96/6/132 98/8/134 
f 101/6/137 102/7/138 103/8/139 
f 102/7/138 104/9/140 103/8/139 
f 104/9/140 105/10/141 103/8/139 
f 105/10/141 101/6/137 103/8/139 
f 106/6/142 107/7/143 108/8/144 
f 107/7/143 109/9/145 108/8/144 
f 109/9/145 110/10/146 108/8/144 
f 110/10/146 106/6/142 108/8/144 
f 111/6/147 112/7/148 113/8/149 
f 112/7/148 114/9/150 113/8/149 
f 114/9/150 115/10/151 113/8/149 
f 115/10/151 111/6/147 113/8/149 
f 116/6/152 117/7/153 118/8/154 
f 117/7/153 119/9/155 118/8/154 
f 119/9/155 120/10/156 118/8/154 
f 120/10/156 116/6/152 118/8/154 
f 121/6/119 122/7/120 123/8/107 
f 122/7/120 124/9/121 123/8/107 
f 124/9/121 125/10/118 123/8/107 
f 125/10/118 121/6/119 123/8/107 
f 126/6/114 127/7/115 128/8/107 
f 127/7/115 129/9/116 128/8/107 
f 129/9/116 130/10/117 128/8/107 
f 130/10/117 126/6/114 128/8/107 
# 0 polygons - 52 triangles

