# 3ds Max Wavefront OBJ Exporter v0.97b - (c)2007 guruware
# File Created: 07.02.2014 17:09:36

#
# object ivy_bend_right_2sided
#

v  -11.2887 3.4362 11.2098
v  -31.2177 6.0404 -0.5605
v  -22.7164 -44.7830 5.5502
v  -6.8340 -35.2172 15.4964
v  14.8205 -62.6346 9.3644
v  1.5272 -77.0580 -3.3761
v  18.3541 -85.8511 -9.5983
v  33.8995 -80.0354 -4.9315
v  -10.7366 28.4403 4.6498
v  -28.1390 25.4702 -3.1051
v  41.2071 -28.2897 1.4708
v  29.3639 -45.2305 10.8853
v  49.4041 -63.6200 -2.0038
v  55.1615 -46.1696 -3.8110
v  27.0475 -18.8045 9.4450
v  13.4502 -24.9065 15.8864
v  33.5599 -5.3897 0.1472
v  11.0503 -0.6705 12.3711
v  26.8585 25.2751 -2.0755
v  11.9912 28.1276 4.4051
# 20 vertices

vn -0.2760 0.1593 0.9479
vn -0.4792 0.1289 0.8682
vn -0.4025 -0.2384 0.8838
vn -0.2548 -0.1319 0.9580
vn -0.0062 -0.4151 0.9098
vn -0.1678 -0.5544 0.8152
vn -0.0176 -0.6341 0.7731
vn 0.1512 -0.5233 0.8387
vn -0.2229 0.2437 0.9439
vn -0.4261 0.1835 0.8859
vn 0.2760 -0.1593 -0.9479
vn 0.2548 0.1319 -0.9580
vn 0.4025 0.2384 -0.8838
vn 0.4792 -0.1289 -0.8682
vn 0.0062 0.4151 -0.9098
vn -0.1512 0.5233 -0.8387
vn 0.0176 0.6341 -0.7731
vn 0.1678 0.5544 -0.8152
vn 0.4261 -0.1835 -0.8859
vn 0.2229 -0.2437 -0.9439
vn 0.5194 0.0620 0.8523
vn 0.3510 -0.0957 0.9315
vn 0.3710 -0.2074 0.9052
vn 0.3381 -0.0141 0.9410
vn 0.3194 0.3172 0.8929
vn 0.1743 0.0554 0.9831
vn 0.4624 0.2157 0.8600
vn 0.2325 0.1938 0.9531
vn 0.4569 0.2037 0.8659
vn 0.2240 0.2530 0.9412
vn -0.4624 -0.2157 -0.8600
vn -0.3194 -0.3172 -0.8929
vn -0.1743 -0.0554 -0.9831
vn -0.2325 -0.1938 -0.9531
vn -0.5194 -0.0620 -0.8523
vn -0.3510 0.0957 -0.9315
vn -0.3381 0.0141 -0.9410
vn -0.3710 0.2074 -0.9052
vn -0.4569 -0.2037 -0.8659
vn -0.2240 -0.2530 -0.9412
# 40 vertex normals

vt 0.3316 0.7923 0.0000
vt 0.0125 0.8330 0.0000
vt 0.0000 0.5000 0.0000
vt 0.2936 0.5169 0.0000
vt 0.3250 0.2722 0.0000
vt 0.0000 0.2500 0.0000
vt 0.0449 0.1291 0.0000
vt 0.2589 0.0844 0.0000
vt 0.3403 0.9881 0.0000
vt 0.0708 0.9844 0.0000
vt 0.9612 0.2948 0.0000
vt 0.6432 0.2870 0.0000
vt 0.5614 0.0340 0.0000
vt 0.8123 0.0023 0.0000
vt 0.8410 0.5422 0.0000
vt 0.6134 0.5327 0.0000
vt 1.0112 0.7262 0.0000
vt 0.6459 0.7584 0.0000
vt 0.8887 0.9809 0.0000
vt 0.6592 0.9865 0.0000
# 20 texture coords

g ivy_bend_right_2sided
s 1
f 1/1/1 2/2/2 3/3/3 4/4/4 
f 5/5/5 6/6/6 7/7/7 8/8/8 
f 4/4/4 3/3/3 6/6/6 5/5/5 
f 9/9/9 10/10/10 2/2/2 1/1/1 
s 2
f 1/1/11 4/4/12 3/3/13 
f 1/1/11 3/3/13 2/2/14 
f 5/5/15 8/8/16 7/7/17 
f 5/5/15 7/7/17 6/6/18 
f 4/4/12 5/5/15 6/6/18 
f 4/4/12 6/6/18 3/3/13 
f 2/2/14 10/10/19 9/9/20 
f 2/2/14 9/9/20 1/1/11 
s 1
f 11/11/21 12/12/22 13/13/23 14/14/24 
f 15/15/25 16/16/26 12/12/22 11/11/21 
f 17/17/27 18/18/28 16/16/26 15/15/25 
f 19/19/29 20/20/30 18/18/28 17/17/27 
s 2
f 17/17/31 15/15/32 16/16/33 
f 17/17/31 16/16/33 18/18/34 
f 15/15/32 11/11/35 12/12/36 
f 15/15/32 12/12/36 16/16/33 
f 11/11/35 14/14/37 13/13/38 
f 11/11/35 13/13/38 12/12/36 
f 19/19/39 17/17/31 18/18/34 
f 19/19/39 18/18/34 20/20/40 
s 1
f 13/13/23 12/12/22 5/5/5 8/8/8 
f 12/12/22 16/16/26 4/4/4 5/5/5 
f 16/16/26 18/18/28 1/1/1 4/4/4 
f 18/18/28 20/20/30 9/9/9 1/1/1 
s 2
f 1/1/11 18/18/34 16/16/33 
f 1/1/11 16/16/33 4/4/12 
f 4/4/12 16/16/33 12/12/36 
f 4/4/12 12/12/36 5/5/15 
f 5/5/15 12/12/36 13/13/38 
f 5/5/15 13/13/38 8/8/16 
f 9/9/20 20/20/40 18/18/34 
f 9/9/20 18/18/34 1/1/11 
# 12 polygons - 24 triangles

#
# object ivy_bend_right_1sided
#

v  -11.2887 3.4362 11.2098
v  -31.2177 6.0404 -0.5605
v  -22.7164 -44.7830 5.5502
v  -6.8340 -35.2172 15.4964
v  14.8205 -62.6346 9.3644
v  1.5272 -77.0580 -3.3761
v  18.3541 -85.8511 -9.5983
v  33.8995 -80.0354 -4.9315
v  -10.7366 28.4403 4.6498
v  -28.1390 25.4702 -3.1051
v  41.2071 -28.2897 1.4708
v  29.3639 -45.2305 10.8853
v  49.4041 -63.6200 -2.0038
v  55.1615 -46.1696 -3.8110
v  27.0475 -18.8045 9.4450
v  13.4502 -24.9065 15.8864
v  33.5599 -5.3897 0.1472
v  11.0503 -0.6705 12.3711
v  26.8585 25.2751 -2.0755
v  11.9912 28.1276 4.4051
# 20 vertices

vn -0.2760 0.1593 0.9479
vn -0.4792 0.1289 0.8682
vn -0.4025 -0.2384 0.8838
vn -0.2548 -0.1319 0.9580
vn -0.0062 -0.4151 0.9098
vn -0.1678 -0.5544 0.8152
vn -0.0176 -0.6341 0.7731
vn 0.1512 -0.5233 0.8387
vn -0.2229 0.2437 0.9439
vn -0.4261 0.1835 0.8859
vn 0.5194 0.0620 0.8523
vn 0.3510 -0.0957 0.9315
vn 0.3710 -0.2074 0.9052
vn 0.3381 -0.0141 0.9410
vn 0.3194 0.3172 0.8929
vn 0.1743 0.0554 0.9831
vn 0.4624 0.2157 0.8600
vn 0.2325 0.1938 0.9531
vn 0.4569 0.2037 0.8659
vn 0.2240 0.2530 0.9412
# 20 vertex normals

vt 0.3316 0.7923 0.0000
vt 0.0125 0.8330 0.0000
vt 0.0000 0.5000 0.0000
vt 0.2936 0.5169 0.0000
vt 0.3250 0.2722 0.0000
vt 0.0000 0.2500 0.0000
vt 0.0449 0.1291 0.0000
vt 0.2589 0.0844 0.0000
vt 0.3403 0.9881 0.0000
vt 0.0708 0.9844 0.0000
vt 0.9612 0.2948 0.0000
vt 0.6432 0.2870 0.0000
vt 0.5614 0.0340 0.0000
vt 0.8123 0.0023 0.0000
vt 0.8410 0.5422 0.0000
vt 0.6134 0.5327 0.0000
vt 1.0112 0.7262 0.0000
vt 0.6459 0.7584 0.0000
vt 0.8887 0.9809 0.0000
vt 0.6592 0.9865 0.0000
# 20 texture coords

g ivy_bend_right_1sided
s 1
f 21/21/41 22/22/42 23/23/43 24/24/44 
f 25/25/45 26/26/46 27/27/47 28/28/48 
f 24/24/44 23/23/43 26/26/46 25/25/45 
f 29/29/49 30/30/50 22/22/42 21/21/41 
f 31/31/51 32/32/52 33/33/53 34/34/54 
f 35/35/55 36/36/56 32/32/52 31/31/51 
f 37/37/57 38/38/58 36/36/56 35/35/55 
f 39/39/59 40/40/60 38/38/58 37/37/57 
f 33/33/53 32/32/52 25/25/45 28/28/48 
f 32/32/52 36/36/56 24/24/44 25/25/45 
f 36/36/56 38/38/58 21/21/41 24/24/44 
f 38/38/58 40/40/60 29/29/49 21/21/41 
# 12 polygons

