# 3ds Max Wavefront OBJ Exporter v0.97b - (c)2007 guruware
# File Created: 07.02.2014 17:10:27

#
# object ivy_corner_horizontal_2sided
#

v  -11.9156 -32.7216 20.2118
v  -32.0130 -36.0353 8.9901
v  -29.8230 -50.2055 10.3714
v  -16.7438 -57.2716 17.3855
v  -13.5220 -10.2233 16.9678
v  -32.0129 -14.6016 6.7195
v  -10.7366 8.8413 -31.5083
v  -28.1390 1.1015 -28.5072
v  -29.9150 1.7943 -17.9772
v  -11.1195 12.1365 -14.0549
v  10.7336 -30.7874 20.4467
v  4.7441 -64.1460 19.2701
v  22.1940 -66.3986 13.3550
v  30.8634 -30.5634 9.9173
v  25.5968 -8.8213 10.7842
v  9.1289 -8.2933 17.7586
v  26.8585 2.1251 -28.3404
v  11.9912 8.5989 -31.1954
v  11.2990 12.6181 -9.8102
v  31.7160 1.3371 -7.6925
v  -12.6820 5.5597 4.7535
v  -31.6153 -2.2465 -2.1802
v  9.8118 6.7744 7.3651
v  28.6313 -0.0761 5.5158
# 24 vertices

vn -0.2480 0.0432 0.9678
vn -0.4936 0.0491 0.8683
vn -0.4820 0.0005 0.8762
vn -0.2817 -0.0549 0.9579
vn -0.2887 0.3596 0.8873
vn -0.5159 0.3073 0.7996
vn -0.2106 0.9611 -0.1787
vn -0.4216 0.8974 -0.1301
vn -0.4581 0.8884 0.0290
vn -0.2553 0.9655 0.0512
vn 0.4820 -0.0005 -0.8762
vn 0.4936 -0.0491 -0.8683
vn 0.2480 -0.0432 -0.9678
vn 0.2817 0.0549 -0.9579
vn 0.2887 -0.3596 -0.8873
vn 0.5159 -0.3073 -0.7996
vn 0.4581 -0.8884 -0.0290
vn 0.4216 -0.8974 0.1301
vn 0.2106 -0.9611 0.1787
vn 0.2553 -0.9655 -0.0512
vn 0.2303 0.0495 0.9718
vn 0.1298 -0.0787 0.9884
vn 0.3661 -0.0670 0.9282
vn 0.4478 0.0398 0.8933
vn 0.3473 0.2845 0.8936
vn 0.1520 0.3502 0.9242
vn 0.4552 0.8826 -0.1176
vn 0.2177 0.9605 -0.1735
vn 0.2017 0.9758 0.0841
vn 0.4766 0.8761 0.0724
vn -0.1520 -0.3502 -0.9242
vn -0.3473 -0.2845 -0.8936
vn -0.4478 -0.0398 -0.8933
vn -0.2303 -0.0495 -0.9718
vn -0.3661 0.0670 -0.9282
vn -0.1298 0.0787 -0.9884
vn -0.4552 -0.8826 0.1176
vn -0.4766 -0.8761 -0.0724
vn -0.2017 -0.9758 -0.0841
vn -0.2177 -0.9605 0.1735
vn -0.2956 0.7867 0.5420
vn -0.4856 0.7457 0.4563
vn 0.1145 0.7854 0.6083
vn 0.3656 0.7309 0.5764
vn 0.4856 -0.7457 -0.4563
vn 0.2956 -0.7867 -0.5420
vn -0.1145 -0.7854 -0.6083
vn -0.3656 -0.7309 -0.5764
# 48 vertex normals

vt 0.3250 0.2722 0.0000
vt 0.0000 0.2500 0.0000
vt 0.0449 0.1291 0.0000
vt 0.2589 0.0844 0.0000
vt 0.3016 0.4542 0.0000
vt 0.0000 0.4333 0.0000
vt 0.3403 0.9881 0.0000
vt 0.0708 0.9844 0.0000
vt 0.0372 0.8971 0.0000
vt 0.3343 0.8523 0.0000
vt 0.6432 0.2870 0.0000
vt 0.5614 0.0340 0.0000
vt 0.8123 0.0023 0.0000
vt 0.9612 0.2948 0.0000
vt 0.8722 0.4780 0.0000
vt 0.6211 0.4696 0.0000
vt 0.8887 0.9809 0.0000
vt 0.6592 0.9865 0.0000
vt 0.6494 0.8188 0.0000
vt 0.9781 0.7949 0.0000
vt 0.3126 0.6546 0.0000
vt 0.0063 0.6665 0.0000
vt 0.6296 0.6456 0.0000
vt 0.9261 0.6342 0.0000
# 24 texture coords

g ivy_corner_horizontal_2sided
s 1
f 1/1/1 2/2/2 3/3/3 4/4/4 
f 2/2/2 1/1/1 5/5/5 6/6/6 
f 7/7/7 8/8/8 9/9/9 10/10/10 
s 2
f 3/3/11 2/2/12 1/1/13 
f 3/3/11 1/1/13 4/4/14 
f 5/5/15 1/1/13 2/2/12 
f 5/5/15 2/2/12 6/6/16 
f 9/9/17 8/8/18 7/7/19 
f 9/9/17 7/7/19 10/10/20 
s 1
f 11/11/21 12/12/22 13/13/23 14/14/24 
f 14/14/24 15/15/25 16/16/26 11/11/21 
f 17/17/27 18/18/28 19/19/29 20/20/30 
s 2
f 16/16/31 15/15/32 14/14/33 
f 16/16/31 14/14/33 11/11/34 
f 11/11/34 14/14/33 13/13/35 
f 11/11/34 13/13/35 12/12/36 
f 17/17/37 20/20/38 19/19/39 
f 17/17/37 19/19/39 18/18/40 
s 1
f 12/12/22 11/11/21 1/1/1 4/4/4 
f 11/11/21 16/16/26 5/5/5 1/1/1 
f 19/19/29 18/18/28 7/7/7 10/10/10 
s 2
f 5/5/15 16/16/31 11/11/34 
f 5/5/15 11/11/34 1/1/13 
f 12/12/36 4/4/14 1/1/13 
f 12/12/36 1/1/13 11/11/34 
f 7/7/19 18/18/40 19/19/39 
f 7/7/19 19/19/39 10/10/20 
s 1
f 5/5/5 21/21/41 22/22/42 6/6/6 
f 9/9/9 22/22/42 21/21/41 10/10/10 
f 19/19/29 23/23/43 24/24/44 20/20/30 
f 23/23/43 16/16/26 15/15/25 24/24/44 
s 2
f 22/22/45 21/21/46 5/5/15 
f 22/22/45 5/5/15 6/6/16 
f 21/21/46 22/22/45 9/9/17 
f 21/21/46 9/9/17 10/10/20 
f 15/15/32 16/16/31 23/23/47 
f 15/15/32 23/23/47 24/24/48 
f 24/24/48 23/23/47 19/19/39 
f 24/24/48 19/19/39 20/20/38 
s 1
f 21/21/41 5/5/5 16/16/26 23/23/43 
f 10/10/10 21/21/41 23/23/43 19/19/29 
s 2
f 21/21/46 23/23/47 16/16/31 
f 21/21/46 16/16/31 5/5/15 
f 10/10/20 19/19/39 23/23/47 
f 10/10/20 23/23/47 21/21/46 
# 15 polygons - 30 triangles

#
# object ivy_corner_horizontal_1sided
#

v  -11.9156 -32.7216 20.2118
v  -32.0130 -36.0353 8.9901
v  -29.8230 -50.2055 10.3714
v  -16.7438 -57.2716 17.3855
v  -13.5220 -10.2233 16.9678
v  -32.0129 -14.6016 6.7195
v  -10.7366 8.8413 -31.5083
v  -28.1390 1.1015 -28.5072
v  -29.9150 1.7943 -17.9772
v  -11.1195 12.1365 -14.0549
v  10.7336 -30.7874 20.4467
v  4.7441 -64.1460 19.2701
v  22.1940 -66.3986 13.3550
v  30.8634 -30.5634 9.9173
v  25.5968 -8.8213 10.7842
v  9.1289 -8.2933 17.7586
v  26.8585 2.1251 -28.3404
v  11.9912 8.5989 -31.1954
v  11.2990 12.6181 -9.8102
v  31.7160 1.3371 -7.6925
v  -12.6820 5.5597 4.7535
v  -31.6153 -2.2465 -2.1802
v  9.8118 6.7744 7.3651
v  28.6313 -0.0761 5.5158
# 24 vertices

vn -0.2480 0.0432 0.9678
vn -0.4936 0.0491 0.8683
vn -0.4820 0.0005 0.8762
vn -0.2817 -0.0549 0.9579
vn -0.2887 0.3596 0.8873
vn -0.5159 0.3073 0.7996
vn -0.2106 0.9611 -0.1787
vn -0.4216 0.8974 -0.1301
vn -0.4581 0.8884 0.0290
vn -0.2553 0.9655 0.0512
vn 0.2303 0.0495 0.9718
vn 0.1298 -0.0787 0.9884
vn 0.3661 -0.0670 0.9282
vn 0.4478 0.0398 0.8933
vn 0.3473 0.2845 0.8936
vn 0.1520 0.3502 0.9242
vn 0.4552 0.8826 -0.1176
vn 0.2177 0.9605 -0.1735
vn 0.2017 0.9758 0.0841
vn 0.4766 0.8761 0.0724
vn -0.2956 0.7867 0.5420
vn -0.4856 0.7457 0.4563
vn 0.1145 0.7854 0.6083
vn 0.3656 0.7309 0.5764
# 24 vertex normals

vt 0.3250 0.2722 0.0000
vt 0.0000 0.2500 0.0000
vt 0.0449 0.1291 0.0000
vt 0.2589 0.0844 0.0000
vt 0.3016 0.4542 0.0000
vt 0.0000 0.4333 0.0000
vt 0.3403 0.9881 0.0000
vt 0.0708 0.9844 0.0000
vt 0.0372 0.8971 0.0000
vt 0.3343 0.8523 0.0000
vt 0.6432 0.2870 0.0000
vt 0.5614 0.0340 0.0000
vt 0.8123 0.0023 0.0000
vt 0.9612 0.2948 0.0000
vt 0.8722 0.4780 0.0000
vt 0.6211 0.4696 0.0000
vt 0.8887 0.9809 0.0000
vt 0.6592 0.9865 0.0000
vt 0.6494 0.8188 0.0000
vt 0.9781 0.7949 0.0000
vt 0.3126 0.6546 0.0000
vt 0.0063 0.6665 0.0000
vt 0.6296 0.6456 0.0000
vt 0.9261 0.6342 0.0000
# 24 texture coords

g ivy_corner_horizontal_1sided
s 1
f 25/25/49 26/26/50 27/27/51 28/28/52 
f 26/26/50 25/25/49 29/29/53 30/30/54 
f 31/31/55 32/32/56 33/33/57 34/34/58 
f 35/35/59 36/36/60 37/37/61 38/38/62 
f 38/38/62 39/39/63 40/40/64 35/35/59 
f 41/41/65 42/42/66 43/43/67 44/44/68 
f 36/36/60 35/35/59 25/25/49 28/28/52 
f 35/35/59 40/40/64 29/29/53 25/25/49 
f 43/43/67 42/42/66 31/31/55 34/34/58 
f 29/29/53 45/45/69 46/46/70 30/30/54 
f 33/33/57 46/46/70 45/45/69 34/34/58 
f 43/43/67 47/47/71 48/48/72 44/44/68 
f 47/47/71 40/40/64 39/39/63 48/48/72 
f 45/45/69 29/29/53 40/40/64 47/47/71 
f 34/34/58 45/45/69 47/47/71 43/43/67 
# 15 polygons

