# 3ds Max Wavefront OBJ Exporter v0.97b - (c)2007 guruware
# File Created: 07.02.2014 17:11:41

#
# object ivy_default_2sided
#

v  -11.2887 3.5872 8.9062
v  -31.2177 6.4981 -2.6816
v  -32.0129 -32.5508 0.5492
v  -14.0754 -30.6725 11.2409
v  -11.9156 -61.1033 8.4205
v  -32.0129 -61.7058 -3.2647
v  -29.8230 -75.8070 -5.2295
v  -16.7438 -84.3153 -0.0588
v  -10.7366 28.2425 1.9797
v  -28.1390 24.5782 -5.4691
v  30.8634 -56.6016 -1.0857
v  10.7336 -59.2775 9.1005
v  4.7441 -91.4397 0.1690
v  22.1940 -92.2492 -6.1085
v  23.7502 -28.2990 6.9043
v  8.5742 -29.0004 12.6494
v  33.5124 -6.1949 -2.5058
v  11.0494 -0.6225 9.7566
v  26.8585 24.5013 -4.4348
v  11.9912 27.9096 1.7656
# 20 vertices

vn -0.2464 0.1805 0.9522
vn -0.4680 0.1629 0.8686
vn -0.5063 -0.0167 0.8622
vn -0.2979 -0.0115 0.9545
vn -0.2480 -0.1839 0.9511
vn -0.4937 -0.1550 0.8557
vn -0.4820 -0.2041 0.8521
vn -0.2817 -0.2770 0.9186
vn -0.2127 0.2586 0.9423
vn -0.4216 0.2079 0.8826
vn 0.2464 -0.1805 -0.9522
vn 0.2979 0.0115 -0.9545
vn 0.5063 0.0167 -0.8622
vn 0.4680 -0.1629 -0.8686
vn 0.2480 0.1839 -0.9511
vn 0.2817 0.2770 -0.9186
vn 0.4820 0.2041 -0.8521
vn 0.4937 0.1550 -0.8557
vn 0.4216 -0.2079 -0.8826
vn 0.2127 -0.2586 -0.9423
vn 0.4411 -0.2061 0.8735
vn 0.2349 -0.2079 0.9495
vn 0.1645 -0.2777 0.9465
vn 0.3225 -0.2085 0.9233
vn 0.3694 0.0817 0.9257
vn 0.1605 0.0038 0.9870
vn 0.4735 0.1339 0.8706
vn 0.2486 0.1545 0.9562
vn 0.4561 0.2025 0.8666
vn 0.2177 0.2566 0.9417
vn -0.4735 -0.1339 -0.8706
vn -0.3694 -0.0817 -0.9257
vn -0.1605 -0.0038 -0.9870
vn -0.2486 -0.1545 -0.9562
vn -0.4411 0.2061 -0.8735
vn -0.2349 0.2079 -0.9495
vn -0.3225 0.2085 -0.9233
vn -0.1645 0.2777 -0.9465
vn -0.4561 -0.2025 -0.8666
vn -0.2177 -0.2566 -0.9417
# 40 vertex normals

vt 0.3316 0.7923 0.0000
vt 0.0125 0.8330 0.0000
vt 0.0000 0.5000 0.0000
vt 0.2936 0.5169 0.0000
vt 0.3250 0.2722 0.0000
vt 0.0000 0.2500 0.0000
vt 0.0449 0.1291 0.0000
vt 0.2589 0.0844 0.0000
vt 0.3403 0.9881 0.0000
vt 0.0708 0.9844 0.0000
vt 0.9612 0.2948 0.0000
vt 0.6432 0.2870 0.0000
vt 0.5614 0.0340 0.0000
vt 0.8123 0.0023 0.0000
vt 0.8410 0.5422 0.0000
vt 0.6134 0.5327 0.0000
vt 1.0112 0.7262 0.0000
vt 0.6459 0.7584 0.0000
vt 0.8887 0.9809 0.0000
vt 0.6592 0.9865 0.0000
# 20 texture coords

g ivy_default_2sided
s 1
f 1/1/1 2/2/2 3/3/3 4/4/4 
f 5/5/5 6/6/6 7/7/7 8/8/8 
f 4/4/4 3/3/3 6/6/6 5/5/5 
f 9/9/9 10/10/10 2/2/2 1/1/1 
s 2
f 1/1/11 4/4/12 3/3/13 
f 1/1/11 3/3/13 2/2/14 
f 5/5/15 8/8/16 7/7/17 
f 5/5/15 7/7/17 6/6/18 
f 4/4/12 5/5/15 6/6/18 
f 4/4/12 6/6/18 3/3/13 
f 2/2/14 10/10/19 9/9/20 
f 2/2/14 9/9/20 1/1/11 
s 1
f 11/11/21 12/12/22 13/13/23 14/14/24 
f 15/15/25 16/16/26 12/12/22 11/11/21 
f 17/17/27 18/18/28 16/16/26 15/15/25 
f 19/19/29 20/20/30 18/18/28 17/17/27 
s 2
f 17/17/31 15/15/32 16/16/33 
f 17/17/31 16/16/33 18/18/34 
f 15/15/32 11/11/35 12/12/36 
f 15/15/32 12/12/36 16/16/33 
f 11/11/35 14/14/37 13/13/38 
f 11/11/35 13/13/38 12/12/36 
f 19/19/39 17/17/31 18/18/34 
f 19/19/39 18/18/34 20/20/40 
s 1
f 13/13/23 12/12/22 5/5/5 8/8/8 
f 12/12/22 16/16/26 4/4/4 5/5/5 
f 16/16/26 18/18/28 1/1/1 4/4/4 
f 18/18/28 20/20/30 9/9/9 1/1/1 
s 2
f 1/1/11 18/18/34 16/16/33 
f 1/1/11 16/16/33 4/4/12 
f 4/4/12 16/16/33 12/12/36 
f 4/4/12 12/12/36 5/5/15 
f 5/5/15 12/12/36 13/13/38 
f 5/5/15 13/13/38 8/8/16 
f 9/9/20 20/20/40 18/18/34 
f 9/9/20 18/18/34 1/1/11 
# 12 polygons - 24 triangles

#
# object ivy_default_1sided
#

v  -11.2887 3.5872 8.9062
v  -31.2177 6.4981 -2.6816
v  -32.0129 -32.5508 0.5492
v  -14.0754 -30.6725 11.2409
v  -11.9156 -61.1033 8.4205
v  -32.0129 -61.7058 -3.2647
v  -29.8230 -75.8070 -5.2295
v  -16.7438 -84.3153 -0.0588
v  -10.7366 28.2425 1.9797
v  -28.1390 24.5782 -5.4691
v  30.8634 -56.6016 -1.0857
v  10.7336 -59.2775 9.1005
v  4.7441 -91.4397 0.1690
v  22.1940 -92.2492 -6.1085
v  23.7502 -28.2990 6.9043
v  8.5742 -29.0004 12.6494
v  33.5124 -6.1949 -2.5058
v  11.0494 -0.6225 9.7566
v  26.8585 24.5013 -4.4348
v  11.9912 27.9096 1.7656
# 20 vertices

vn -0.2464 0.1805 0.9522
vn -0.4680 0.1629 0.8686
vn -0.5063 -0.0167 0.8622
vn -0.2979 -0.0115 0.9545
vn -0.2480 -0.1839 0.9511
vn -0.4937 -0.1550 0.8557
vn -0.4820 -0.2041 0.8521
vn -0.2817 -0.2770 0.9186
vn -0.2127 0.2586 0.9423
vn -0.4216 0.2079 0.8826
vn 0.4411 -0.2061 0.8735
vn 0.2349 -0.2079 0.9495
vn 0.1645 -0.2777 0.9465
vn 0.3225 -0.2085 0.9233
vn 0.3694 0.0817 0.9257
vn 0.1605 0.0038 0.9870
vn 0.4735 0.1339 0.8706
vn 0.2486 0.1545 0.9562
vn 0.4561 0.2025 0.8666
vn 0.2177 0.2566 0.9417
# 20 vertex normals

vt 0.3316 0.7923 0.0000
vt 0.0125 0.8330 0.0000
vt 0.0000 0.5000 0.0000
vt 0.2936 0.5169 0.0000
vt 0.3250 0.2722 0.0000
vt 0.0000 0.2500 0.0000
vt 0.0449 0.1291 0.0000
vt 0.2589 0.0844 0.0000
vt 0.3403 0.9881 0.0000
vt 0.0708 0.9844 0.0000
vt 0.9612 0.2948 0.0000
vt 0.6432 0.2870 0.0000
vt 0.5614 0.0340 0.0000
vt 0.8123 0.0023 0.0000
vt 0.8410 0.5422 0.0000
vt 0.6134 0.5327 0.0000
vt 1.0112 0.7262 0.0000
vt 0.6459 0.7584 0.0000
vt 0.8887 0.9809 0.0000
vt 0.6592 0.9865 0.0000
# 20 texture coords

g ivy_default_1sided
s 1
f 21/21/41 22/22/42 23/23/43 24/24/44 
f 25/25/45 26/26/46 27/27/47 28/28/48 
f 24/24/44 23/23/43 26/26/46 25/25/45 
f 29/29/49 30/30/50 22/22/42 21/21/41 
f 31/31/51 32/32/52 33/33/53 34/34/54 
f 35/35/55 36/36/56 32/32/52 31/31/51 
f 37/37/57 38/38/58 36/36/56 35/35/55 
f 39/39/59 40/40/60 38/38/58 37/37/57 
f 33/33/53 32/32/52 25/25/45 28/28/48 
f 32/32/52 36/36/56 24/24/44 25/25/45 
f 36/36/56 38/38/58 21/21/41 24/24/44 
f 38/38/58 40/40/60 29/29/49 21/21/41 
# 12 polygons

